<svg xmlns="http://www.w3.org/2000/svg" width="1400" height="1400"><rect width="100%" height="100%" fill="#bcd9e8"/><path d="M295.7 1108.7L291.0 1112.3L295.3 1119.3L297.5 1120.5L306.2 1120.6L308.7 1122.4L312.5 1122.2L311.0 1125.6L311.4 1130.3L313.8 1133.6L320.0 1136.5L326.1 1141.5L328.2 1147.1L333.1 1151.4L330.5 1174.4L338.9 1184.4L340.7 1188.8L339.3 1198.2L337.4 1201.0L338.1 1203.7L336.3 1206.5L330.5 1207.5L328.4 1211.3L334.6 1214.7L335.7 1220.1L343.0 1223.8L356.3 1224.0L362.7 1221.7L365.1 1217.9L370.9 1218.2L373.7 1221.2L386.1 1223.9L388.9 1226.1L390.5 1230.6L388.8 1234.8L383.0 1238.1L383.7 1239.0L388.3 1238.4L391.8 1240.3L389.3 1244.4L391.2 1247.6L392.7 1247.3L393.5 1253.7L399.4 1253.9L400.8 1249.0L402.3 1249.0L399.3 1242.1L403.0 1239.8L406.5 1239.3L409.5 1244.3L407.9 1253.1L413.0 1253.9L415.9 1252.9L418.5 1249.7L421.2 1257.5L424.1 1260.4L417.2 1264.5L412.1 1264.0L410.5 1266.4L412.1 1269.2L415.3 1269.3L419.2 1273.5L420.4 1280.0L423.8 1282.8L427.1 1284.5L435.1 1283.6L441.7 1285.4L446.9 1285.2L451.2 1276.4L455.1 1273.0L458.8 1271.7L463.2 1275.4L469.6 1277.7L473.3 1273.9L483.8 1271.4L489.6 1272.8L500.1 1272.7L502.7 1274.2L504.6 1279.4L509.4 1282.3L509.3 1285.9L511.0 1288.1L510.7 1295.1L515.2 1300.9L518.6 1311.5L523.9 1318.2L526.6 1319.4L529.8 1317.7L532.8 1317.8L534.4 1321.4L540.2 1322.7L535.3 1314.6L537.5 1312.8L537.7 1306.4L543.6 1306.7L542.9 1302.9L545.8 1302.9L545.8 1304.1L548.7 1301.4L553.8 1300.2L564.1 1299.8L564.1 1301.0L568.6 1300.9L568.6 1302.1L575.2 1301.8L575.9 1299.7L579.6 1300.3L589.8 1292.9L594.9 1293.4L596.5 1296.0L600.9 1298.6L616.4 1303.1L623.7 1300.4L622.5 1294.6L616.9 1288.9L614.8 1288.9L614.0 1285.4L615.4 1285.4L613.9 1281.9L615.4 1281.9L615.3 1279.0L618.3 1279.0L618.2 1277.2L616.0 1276.7L616.0 1277.8L611.6 1275.5L604.8 1261.6L599.6 1258.8L599.5 1257.1L597.3 1256.5L592.8 1250.1L591.3 1250.2L586.9 1245.5L582.4 1243.9L582.4 1242.7L560.3 1237.6L556.9 1233.6L555.3 1227.2L550.5 1220.9L543.8 1221.5L543.1 1223.3L539.5 1224.5L538.0 1222.2L528.4 1221.7L527.6 1219.4L521.7 1217.7L517.2 1207.8L507.6 1206.1L504.5 1195.7L504.0 1188.2L509.1 1182.9L510.1 1176.5L521.0 1168.0L552.6 1170.3L554.2 1172.6L561.5 1173.4L571.8 1173.0L571.0 1168.4L553.9 1158.1L544.2 1143.1L537.5 1139.6L529.4 1140.6L516.9 1139.5L505.9 1144.6L502.3 1147.5L500.9 1151.0L491.4 1155.7L478.1 1153.0L469.9 1143.7L461.9 1128.1L461.9 1123.5L460.0 1121.7L453.4 1121.2L452.6 1119.5L445.3 1117.2L440.8 1113.2L428.2 1106.9L422.9 1097.6L411.7 1087.3L405.0 1076.3L400.5 1073.4L395.2 1063.6L377.5 1064.6L373.2 1063.2L372.4 1037.1L371.2 1031.8L366.8 1030.1L365.6 1023.8L368.8 1019.1L373.2 1018.5L376.2 1016.1L376.8 1012.6L378.3 1012.6L380.7 998.6L379.2 995.7L379.0 982.9L371.8 967.3L359.3 964.8L355.6 966.9L355.6 968.6L349.0 966.6L346.8 966.9L346.1 968.7L342.4 969.0L339.4 965.9L332.0 963.0L326.6 970.0L327.1 974.7L324.1 975.0L322.6 974.2L325.9 966.6L323.2 960.2L318.0 959.4L315.8 960.8L315.8 956.8L323.8 954.7L326.8 956.1L327.5 953.2L333.4 956.3L342.2 955.4L343.4 958.2L351.8 959.6L355.4 950.6L359.0 947.7L363.4 947.6L361.9 945.3L359.0 944.8L358.1 936.6L359.6 936.6L356.6 929.7L354.4 929.7L352.9 926.8L350.6 926.2L350.9 920.4L349.1 918.1L357.9 917.7L360.0 915.4L364.4 913.9L364.4 915.1L367.4 915.0L368.2 917.9L369.3 917.3L369.9 912.7L373.9 908.9L377.8 899.3L379.6 898.6L379.9 887.6L377.2 883.6L371.3 880.7L371.3 879.0L367.6 877.8L367.2 874.9L361.6 868.6L359.4 868.6L358.6 866.9L354.9 865.7L352.6 860.5L346.7 857.7L342.2 853.1L334.2 854.3L327.2 861.9L327.3 867.9L328.9 870.0L327.0 870.0L313.0 863.0L300.7 852.1L300.9 851.2L305.9 854.2L310.4 854.6L310.7 850.4L315.4 848.6L317.0 845.0L320.7 845.4L325.6 843.9L329.9 838.6L329.9 834.6L326.0 829.1L320.5 823.6L315.4 820.7L313.1 815.5L307.2 814.6L299.8 815.8L293.1 813.5L290.2 809.9L285.1 809.4L284.4 812.9L274.8 815.6L269.7 814.0L266.1 815.1L255.0 812.2L248.9 813.3L246.2 809.6L246.8 806.8L252.9 804.6L254.1 801.5L247.5 797.8L242.9 797.9L237.1 791.8L233.4 791.2L232.6 789.5L224.5 786.5L222.6 783.0L208.9 778.8L200.1 774.1L200.1 772.9L192.0 770.1L190.5 767.2L186.7 765.5L190.9 759.8L190.8 757.2L180.7 753.9L180.2 747.6L178.5 744.7L181.0 740.5L184.4 741.7L186.8 740.7L187.6 738.8L189.6 738.9L204.3 747.2L213.6 744.2L220.5 747.6L220.8 749.6L226.7 747.0L227.2 751.6L230.0 752.5L233.0 751.1L232.1 748.2L235.9 748.1L235.5 743.2L238.7 740.1L244.2 745.7L250.4 748.3L253.7 748.0L253.6 743.2L245.1 735.3L244.6 733.1L247.2 732.3L245.8 730.1L244.3 730.1L244.2 724.9L246.4 724.8L244.9 720.0L249.7 720.6L254.7 729.3L260.4 723.8L273.6 723.4L273.2 720.5L269.9 718.2L270.6 719.4L262.5 718.9L262.5 717.1L255.9 716.0L254.3 712.8L250.7 713.8L249.7 716.3L238.2 715.1L227.0 704.1L224.1 703.8L215.4 711.2L211.0 710.9L208.8 709.5L203.2 701.8L206.4 694.4L204.2 693.8L201.7 680.2L205.9 666.3L203.9 664.7L198.8 650.8L197.9 638.1L195.3 635.2L189.4 632.3L186.3 622.5L174.5 620.8L174.5 619.7L171.6 619.1L172.3 615.6L170.3 615.1L167.2 620.9L159.1 622.4L144.4 622.2L143.3 620.8L140.8 622.8L140.0 625.3L142.2 628.0L140.8 631.0L141.6 637.6L138.9 642.0L140.2 645.3L138.3 652.4L140.3 659.0L142.4 660.5L141.0 663.5L143.4 674.8L141.2 681.5L139.1 680.4L139.4 682.2L136.6 683.4L129.2 683.4L110.9 675.0L109.2 673.7L108.8 662.7L107.0 661.5L102.4 662.8L93.6 661.9L90.6 663.0L88.2 666.6L90.0 666.8L88.7 667.1L89.2 668.9L93.6 668.2L98.5 674.1L94.4 679.9L95.7 686.6L93.4 693.1L87.2 700.9L90.1 706.6L88.9 709.6L86.5 708.9L79.6 710.0L78.3 712.1L77.7 710.5L76.7 711.1L75.5 709.9L74.0 710.4L73.5 712.8L70.5 713.0L67.2 710.8L71.1 709.9L67.8 706.0L69.7 704.0L72.0 704.7L72.4 702.4L64.5 703.6L61.4 701.1L64.1 697.5L73.6 698.5L73.3 694.9L72.9 696.4L65.9 696.2L66.4 693.7L64.2 693.8L62.6 691.6L58.4 690.6L60.4 691.4L58.9 693.1L57.8 691.7L57.7 695.7L54.0 695.9L51.7 694.1L-215.4 694.1L-215.4 1108.7L295.7 1108.7Z" fill="#d8cfa8" stroke="#4a6b52" stroke-width="0.8"/><path d="M-51.2 1340.8L-49.5 1341.4L-45.2 1339.1L-39.4 1333.9L-35.9 1327.2L-15.9 1304.7L5.2 1277.9L9.8 1270.0L10.3 1264.4L15.7 1261.6L19.1 1257.7L26.9 1243.0L26.2 1238.6L21.5 1234.6L25.2 1232.5L33.7 1219.9L40.6 1213.4L42.4 1203.3L37.4 1193.7L87.9 1172.1L91.5 1172.8L96.6 1177.5L99.0 1178.1L100.7 1175.7L113.3 1167.8L134.0 1158.7L140.3 1157.1L159.7 1158.0L167.3 1171.5L172.0 1173.2L174.2 1164.9L193.5 1151.1L204.5 1150.1L206.7 1146.3L219.1 1140.7L222.7 1136.9L227.3 1112.8L223.9 1102.0L-215.4 1102.0L-215.4 1340.8L-51.2 1340.8Z" fill="#d8cfa8" stroke="#4a6b52" stroke-width="0.8"/><path d="M808.2 793.5L810.0 794.9L816.8 792.5L819.2 782.9L821.0 782.3L826.6 785.8L827.8 789.4L832.0 791.4L832.6 795.5L832.0 791.2L837.1 800.6L842.1 802.4L846.0 800.1L848.4 801.8L849.0 806.2L851.4 808.7L855.4 811.5L860.5 811.5L869.3 818.0L869.2 814.2L864.4 812.1L865.2 808.9L870.8 804.6L878.3 803.1L876.0 794.6L878.8 791.3L877.8 789.8L879.8 788.8L882.6 782.3L882.8 784.5L887.2 780.6L892.4 782.2L896.4 769.9L900.9 769.2L904.1 770.4L903.7 774.5L905.0 776.1L901.9 780.3L901.0 787.4L902.5 789.0L905.0 789.6L908.1 779.9L911.7 777.2L919.1 776.3L920.5 774.4L928.1 777.9L928.2 785.6L932.4 788.7L928.2 792.1L932.1 791.9L935.3 789.2L934.9 791.3L936.0 790.8L938.8 786.9L936.8 785.7L939.4 782.5L938.9 780.2L940.9 780.0L941.9 773.3L945.4 773.2L948.4 770.5L951.4 769.8L951.3 765.8L953.0 765.4L952.8 763.7L955.2 763.0L956.6 764.6L960.3 764.6L962.6 769.2L968.9 766.0L972.9 766.5L978.3 756.1L975.8 755.2L970.9 757.0L967.8 755.8L967.6 753.0L964.8 750.8L962.6 752.5L961.9 755.3L959.2 755.6L947.4 752.4L936.2 747.1L914.6 729.5L890.9 696.3L883.5 679.5L875.0 667.9L873.3 669.7L875.3 671.8L874.0 681.9L870.5 686.6L870.0 689.6L862.3 693.8L861.0 697.4L861.6 701.0L852.3 706.7L849.0 722.9L845.9 726.5L836.3 728.3L835.5 726.5L837.4 723.9L843.7 721.7L842.9 713.7L845.5 707.4L848.3 705.1L848.3 698.3L855.3 691.5L853.4 679.9L857.1 677.0L857.8 673.7L851.7 666.3L851.3 661.2L854.6 657.7L854.7 654.8L857.4 650.7L864.4 647.1L865.7 644.5L867.3 644.4L867.7 640.0L871.2 640.0L871.6 643.8L873.3 642.6L874.8 637.3L876.8 636.1L875.7 634.5L877.3 630.9L876.2 628.3L878.2 622.6L866.8 624.5L865.0 626.0L864.4 627.1L867.6 630.5L866.5 633.2L862.7 636.0L857.1 644.1L853.2 645.3L845.9 658.1L840.6 658.6L836.3 662.3L833.5 661.7L827.7 665.4L815.6 667.5L818.9 650.2L822.9 648.8L824.9 644.8L830.3 643.6L831.9 642.0L829.9 636.0L831.7 635.0L832.9 630.4L835.7 628.6L835.8 624.4L839.7 621.0L837.9 620.5L837.1 616.9L826.9 619.5L824.3 622.6L818.1 625.6L805.9 640.5L797.7 644.0L785.2 655.7L787.7 646.3L791.1 641.9L793.7 634.6L795.8 621.3L794.6 616.1L798.4 606.6L796.9 605.3L793.5 605.7L791.7 604.8L783.9 606.8L780.6 605.3L779.3 602.8L780.5 599.3L777.9 597.5L778.0 595.1L781.6 592.2L780.9 588.0L781.9 585.4L783.9 584.9L785.8 579.6L790.4 576.9L796.6 577.6L799.0 579.1L800.2 578.3L799.3 566.1L803.0 566.7L804.4 565.5L799.2 562.6L800.8 552.1L796.9 549.0L789.9 547.2L788.1 550.0L767.2 552.0L762.2 549.1L748.4 555.6L743.5 553.1L741.7 542.2L744.8 532.9L748.8 529.4L749.5 523.1L757.7 518.1L762.3 511.6L765.2 511.6L766.2 509.7L766.1 508.5L762.1 510.9L755.9 511.4L752.8 509.7L755.3 505.8L754.5 501.9L752.7 503.2L747.3 502.3L736.5 486.4L737.2 479.4L738.4 479.1L741.2 481.4L743.1 480.8L748.7 477.0L751.1 472.7L749.9 458.1L747.9 453.2L741.5 452.5L739.6 450.8L738.4 451.6L731.7 446.9L721.5 445.4L706.3 440.5L703.0 443.5L689.6 446.6L689.6 450.3L692.8 453.7L694.5 461.6L694.3 470.0L698.9 473.5L697.0 479.4L693.2 484.7L697.1 486.6L699.7 490.5L695.2 498.3L701.3 513.9L695.7 520.0L690.3 523.4L693.0 528.6L686.4 534.7L683.2 544.8L683.3 547.4L688.2 554.1L687.3 556.6L683.2 555.6L681.6 557.1L682.8 559.3L681.6 561.7L683.9 564.3L682.9 578.9L680.2 585.6L669.5 583.9L670.1 586.0L675.6 589.5L673.4 590.8L668.9 590.8L665.8 595.1L665.0 601.6L660.4 605.7L651.1 604.8L647.2 599.4L645.5 605.6L645.9 610.7L644.4 613.0L646.2 618.5L640.1 627.7L642.1 634.3L646.0 638.2L650.1 640.5L654.4 639.9L660.0 629.6L664.5 626.9L676.1 610.0L682.2 605.5L683.6 610.2L685.4 610.4L696.4 603.3L699.4 605.2L699.5 611.0L687.0 626.6L685.9 632.3L692.0 636.5L700.5 632.9L712.5 634.9L716.9 629.6L717.7 626.2L723.1 623.7L723.6 628.3L725.4 629.7L723.4 631.6L724.3 633.2L713.2 643.3L711.8 644.0L709.0 641.9L704.7 643.7L702.7 647.3L694.7 654.1L687.9 654.7L686.7 651.4L683.4 651.4L680.0 660.0L673.5 660.5L671.6 664.6L669.5 665.5L672.1 671.5L657.1 683.6L654.0 695.6L644.4 697.4L642.8 699.2L640.6 696.8L637.4 696.7L636.3 689.0L641.0 683.8L636.2 685.5L634.4 687.6L635.0 690.0L629.6 697.7L621.5 700.1L622.8 706.0L616.4 706.5L614.3 709.7L614.5 714.8L612.2 720.2L614.3 722.8L610.0 726.3L605.9 725.1L590.1 730.2L584.8 721.8L575.7 726.8L573.3 726.9L572.7 738.8L574.1 741.7L571.6 747.3L573.5 747.4L584.1 739.6L588.1 739.8L589.0 744.6L590.9 745.5L599.2 743.8L601.3 740.0L605.5 736.7L610.3 735.2L613.5 737.4L616.4 736.6L617.8 739.9L613.0 739.7L610.1 742.0L607.0 751.2L604.2 753.5L600.4 753.3L599.8 754.4L600.5 758.2L603.5 760.1L606.7 759.0L615.0 759.2L617.0 756.6L622.0 754.5L625.1 755.2L624.1 762.5L626.4 766.3L622.0 771.4L622.3 773.3L628.6 778.8L635.2 778.8L639.7 783.7L640.5 771.9L644.1 770.1L650.3 772.4L654.0 771.9L658.8 766.5L660.1 760.4L664.3 759.4L667.1 757.0L673.4 757.1L679.1 752.8L681.4 754.2L686.9 745.1L688.1 737.9L688.3 735.7L684.3 731.1L690.9 728.3L693.0 724.2L696.8 729.2L696.2 738.9L697.7 740.6L700.5 738.6L702.4 734.3L704.2 735.5L711.7 726.7L712.4 723.7L716.4 724.2L717.5 723.2L717.4 720.0L725.2 711.8L727.5 707.6L726.6 706.2L729.4 704.2L725.0 694.9L725.5 692.9L722.8 693.0L721.4 691.2L722.8 689.4L722.1 691.8L725.8 692.5L731.5 704.2L733.9 703.7L734.7 697.7L736.6 697.0L737.6 698.4L740.0 697.4L737.8 699.3L735.5 698.8L735.0 704.3L731.5 707.3L729.0 713.5L723.7 718.0L722.3 725.5L724.0 727.3L720.0 728.3L719.7 731.5L717.8 730.3L714.0 731.0L711.6 734.2L712.4 739.1L705.6 741.5L695.8 748.1L695.1 754.5L692.4 755.2L692.8 760.6L679.0 767.6L677.3 769.9L674.1 771.0L672.4 774.1L674.2 777.3L672.5 782.2L676.1 785.0L678.6 785.3L683.2 781.9L686.7 773.4L689.1 771.2L695.1 771.0L693.5 773.5L694.2 776.2L703.6 774.1L706.4 775.9L706.3 783.8L701.1 794.9L703.2 798.4L701.0 802.7L697.8 804.7L700.6 814.5L700.1 817.2L707.8 820.7L709.5 822.7L706.0 831.0L709.5 832.7L716.1 829.7L716.3 830.8L720.5 830.7L720.8 826.9L722.3 826.5L730.5 827.4L734.1 829.2L738.0 825.9L742.4 825.5L747.0 820.6L750.2 820.6L752.5 817.3L755.3 817.6L759.7 815.5L771.6 818.6L772.7 816.7L771.5 808.6L751.1 804.1L749.9 798.6L750.9 795.1L763.0 796.6L768.0 794.3L767.4 788.7L770.3 785.9L766.4 777.0L776.5 773.5L776.6 771.8L781.4 770.9L783.0 773.6L787.6 773.9L791.3 780.9L794.5 782.5L795.5 786.6L796.7 786.8L798.5 784.3L798.7 780.1L806.9 781.1L804.8 790.0L808.2 793.5Z" fill="#cfe3b8" stroke="#4a6b52" stroke-width="0.8"/><path d="M690.3 229.6L685.9 228.2L685.7 229.4L681.3 231.5L680.6 235.1L678.1 237.5L672.0 240.4L670.2 238.8L668.1 240.3L663.6 239.0L656.6 233.0L649.7 236.2L648.0 235.4L647.3 247.0L644.0 248.6L636.2 247.5L634.6 248.4L631.9 245.4L627.6 245.1L625.3 255.2L620.2 257.5L620.8 263.3L618.5 265.2L615.2 264.7L612.9 262.3L612.8 256.6L610.9 254.4L609.6 264.9L611.4 272.5L608.9 277.1L604.2 273.7L600.4 264.8L598.1 263.8L591.8 255.8L592.3 245.9L599.6 236.1L598.3 231.1L594.7 233.5L589.3 234.4L587.3 237.3L578.6 236.6L574.6 242.8L566.3 247.6L553.1 249.2L559.0 254.8L558.0 255.8L557.4 253.4L555.2 253.2L554.5 258.8L551.6 264.3L547.1 265.3L543.2 268.9L554.0 286.8L557.6 286.9L561.4 289.4L563.5 288.5L568.6 289.6L571.4 288.5L567.4 293.7L568.4 297.7L567.1 302.3L555.8 309.4L559.0 313.1L569.8 315.9L564.2 322.0L563.8 324.2L561.5 324.5L559.6 328.5L555.6 331.5L551.9 337.8L546.9 337.0L545.6 333.9L543.9 336.0L542.3 335.6L537.4 330.0L535.3 333.4L530.7 335.0L529.3 338.6L523.8 341.0L518.3 339.7L515.3 341.0L510.9 340.1L508.6 345.5L509.9 352.1L507.1 359.6L504.4 362.5L495.6 366.3L496.0 369.2L499.9 371.2L500.9 375.0L508.0 378.2L508.2 376.0L510.1 375.2L509.2 382.5L507.1 380.0L504.5 379.5L498.4 385.4L501.9 389.6L501.9 393.1L496.9 403.5L501.1 410.6L499.1 420.1L495.7 426.5L495.8 438.8L494.1 445.0L491.4 447.2L490.6 452.0L491.2 457.6L491.2 456.3L493.7 455.5L495.7 449.9L500.0 447.1L503.6 448.0L501.5 451.4L506.4 455.5L507.1 457.7L505.9 473.8L509.2 470.7L510.7 464.9L516.0 462.7L517.4 455.6L520.9 452.8L526.4 452.9L529.4 451.4L538.8 438.6L539.1 432.9L536.0 430.8L539.3 429.6L541.4 431.9L543.6 432.2L545.0 429.3L547.5 429.0L547.2 425.2L542.9 425.5L541.4 424.6L542.7 420.4L540.6 419.4L539.6 416.5L543.8 416.0L539.7 411.2L539.3 404.1L544.1 402.9L546.0 400.9L548.6 401.7L547.7 406.7L553.0 408.2L553.4 413.4L554.0 414.5L555.1 414.0L562.0 404.8L564.2 394.5L569.7 386.5L572.1 376.0L578.4 369.4L582.0 370.5L582.3 373.9L580.0 375.7L579.0 381.4L582.0 389.5L577.0 393.2L590.7 399.4L579.2 400.2L577.9 401.7L578.6 404.2L575.9 404.3L574.0 406.0L574.8 412.4L573.2 414.0L572.9 417.9L570.3 417.2L571.3 423.6L569.4 425.4L569.4 429.1L560.7 432.0L560.3 437.3L558.8 438.9L559.5 441.1L556.2 445.3L556.4 452.0L554.9 455.8L552.6 457.9L550.2 456.7L546.5 460.3L544.9 466.0L551.3 461.8L553.2 461.8L557.6 465.2L560.8 470.2L564.6 469.9L567.8 476.8L575.1 478.0L577.8 485.6L579.5 486.0L580.2 479.6L576.2 473.8L578.3 471.4L583.2 469.1L584.3 464.8L590.0 462.8L592.3 457.5L593.0 451.2L587.4 443.5L593.0 445.1L594.8 443.6L595.3 436.7L592.1 432.9L594.8 431.4L593.6 428.6L595.6 424.2L594.8 418.5L596.5 416.9L599.6 416.6L601.6 405.3L603.8 404.9L603.7 402.8L608.4 402.3L612.8 399.1L612.2 393.7L615.9 391.5L616.1 388.6L619.7 390.6L622.6 386.7L622.8 383.2L624.8 384.4L626.5 390.0L624.5 395.5L627.7 398.2L625.6 403.6L621.2 406.7L618.5 406.1L618.1 407.9L619.2 412.8L628.4 420.0L624.3 423.8L618.2 424.9L620.7 430.9L619.4 433.3L623.0 436.2L626.7 436.1L633.4 439.9L633.7 445.2L627.6 452.9L620.6 456.1L617.1 453.5L614.9 454.8L612.7 460.9L613.5 465.5L609.5 471.9L613.3 476.9L615.4 477.8L618.7 487.5L620.5 488.0L622.1 492.8L625.1 493.7L626.7 492.5L631.1 482.2L630.6 480.1L638.7 478.2L642.1 474.8L642.0 472.4L644.8 471.6L649.8 465.9L654.9 463.6L654.6 457.4L660.0 447.8L667.2 446.3L668.8 448.2L666.5 449.0L666.3 450.3L669.2 451.5L671.0 450.7L671.7 447.1L678.7 444.5L679.0 442.7L676.7 441.0L667.2 440.3L662.1 435.9L663.3 426.5L656.9 414.4L658.0 411.6L664.8 407.3L658.2 394.6L657.5 385.7L658.8 376.6L652.4 369.2L652.3 367.4L648.7 366.3L645.8 368.1L643.4 366.7L641.5 361.4L643.0 357.4L644.9 357.7L647.7 355.5L650.0 351.0L652.9 349.9L652.9 345.8L650.2 344.1L648.6 344.9L640.9 342.4L640.3 339.0L638.0 338.0L636.7 333.6L638.2 330.3L636.3 323.4L637.5 320.7L642.4 319.6L649.3 326.0L651.8 325.4L653.7 322.2L654.2 311.6L657.4 304.7L656.2 303.2L659.8 301.9L660.8 307.4L663.9 312.4L667.0 314.0L667.4 316.2L669.6 316.8L669.8 321.3L672.3 325.3L676.4 326.8L677.6 329.7L680.5 331.8L685.7 332.4L689.1 331.1L691.7 332.9L690.4 330.3L691.7 329.4L689.8 328.3L689.1 325.4L685.8 324.7L685.2 320.2L687.1 318.8L688.8 320.4L690.1 318.6L688.3 313.1L689.1 311.4L698.0 308.7L698.8 306.2L696.7 303.2L695.2 303.3L693.6 300.6L690.2 298.9L688.0 300.0L686.2 303.7L678.1 301.1L671.1 301.2L666.0 295.7L666.9 292.5L665.9 291.7L671.9 297.5L673.9 295.3L674.6 291.3L673.1 288.8L668.6 287.4L667.4 281.7L670.3 278.1L674.2 279.1L673.2 277.5L674.7 275.2L673.9 272.3L677.4 272.7L679.5 277.3L681.6 276.7L682.1 274.1L685.0 272.5L693.5 270.2L692.2 268.0L694.6 267.3L696.0 264.4L694.9 259.0L696.1 255.7L691.3 250.5L696.1 249.9L696.4 247.8L701.7 246.2L705.2 246.4L709.5 249.8L713.8 248.7L720.0 252.8L720.9 250.1L723.1 249.2L720.4 242.5L718.7 243.3L716.8 241.6L712.1 241.4L712.1 236.8L710.6 233.9L708.7 233.2L711.3 228.9L707.4 230.8L700.9 230.7L698.8 229.4L697.3 224.0L694.8 225.2L694.3 228.4L690.3 229.6Z" fill="#cfe3b8" stroke="#4a6b52" stroke-width="0.8"/><path d="M51.7 694.1L50.3 695.5L51.3 693.1L48.2 693.3L43.7 690.9L44.8 688.2L43.1 684.0L39.8 685.6L36.2 685.5L32.6 691.7L31.4 691.6L27.0 696.3L27.7 698.6L21.2 698.8L17.1 695.7L16.8 698.5L9.2 701.9L9.7 704.9L7.8 707.9L-7.8 706.9L-16.9 701.2L-23.4 703.7L-29.1 714.7L-32.2 716.4L-43.7 716.2L-51.5 720.1L-57.3 717.2L-60.9 711.1L-61.0 707.4L-62.3 707.0L-59.2 702.5L-55.8 691.3L-59.9 684.1L-56.4 677.8L-56.6 675.4L-61.6 669.7L-61.4 666.7L-63.7 665.9L-56.2 658.4L-55.2 654.4L-49.4 648.2L-51.8 644.0L-59.1 643.4L-60.2 641.0L-59.0 638.0L-55.7 636.3L-45.7 635.0L-45.9 638.3L-43.8 640.4L-50.9 642.0L-47.9 644.0L-43.7 642.2L-41.1 636.2L-43.4 631.8L-42.9 623.1L-50.5 613.1L-52.6 612.0L-56.9 612.9L-77.3 628.7L-79.2 635.3L-77.3 640.5L-82.7 646.8L-90.4 649.6L-100.4 649.5L-100.2 645.1L-97.5 641.1L-99.5 638.8L-98.8 637.7L-102.0 636.2L-100.4 634.5L-102.0 634.5L-99.4 632.3L-101.5 625.9L-97.7 622.8L-87.0 621.4L-86.3 614.0L-90.5 604.9L-99.6 596.2L-105.2 588.3L-106.4 579.7L-99.0 572.7L-96.5 566.5L-95.7 555.4L-93.3 549.9L-84.9 544.5L-81.4 536.3L-73.1 529.8L-67.8 528.9L-63.4 526.0L-62.5 518.1L-59.4 512.8L-61.4 508.4L-59.5 495.1L-62.2 492.4L-62.4 487.4L-64.6 491.6L-69.8 494.8L-70.4 499.5L-68.0 504.8L-63.9 507.2L-62.4 513.8L-63.4 515.7L-72.3 523.0L-86.6 527.0L-89.0 530.6L-90.5 540.7L-105.8 545.4L-107.5 549.9L-103.7 554.2L-104.9 557.4L-111.4 564.1L-117.8 567.4L-120.3 573.2L-126.8 579.5L-141.1 577.1L-144.8 574.9L-149.0 569.8L-146.7 566.6L-146.2 557.9L-141.0 547.4L-146.8 535.8L-145.9 532.6L-146.9 530.5L-145.1 524.5L-147.0 519.8L-147.4 505.8L-146.6 496.7L-145.0 494.6L-147.0 490.4L-145.5 482.2L-156.3 480.0L-165.6 475.5L-167.6 476.0L-171.5 481.9L-172.1 488.3L-177.4 497.6L-178.7 503.9L-184.7 506.3L-186.8 508.7L-192.9 520.9L-193.1 531.0L-191.4 532.5L-188.7 532.5L-188.2 533.8L-189.7 541.6L-186.7 544.8L-186.4 548.7L-180.3 555.4L-179.2 558.1L-180.1 560.3L-177.4 564.5L-178.9 568.6L-177.9 578.5L-188.8 587.9L-194.7 585.3L-198.5 587.0L-200.8 586.3L-203.7 580.6L-210.2 577.5L-219.2 578.7L-224.9 589.5L-230.9 589.9L-235.7 586.8L-235.7 583.9L-238.7 579.1L-241.8 577.6L-245.5 577.7L-248.9 575.0L-252.1 575.3L-252.0 574.1L-257.2 574.5L-266.2 566.4L-264.1 562.7L-264.6 558.9L-258.4 556.7L-261.3 547.4L-256.5 544.4L-253.4 544.8L-247.1 540.1L-242.2 534.4L-237.7 532.2L-229.9 520.4L-225.3 509.7L-217.3 498.7L-215.2 490.3L-221.1 492.6L-232.5 503.0L-234.8 504.0L-241.6 503.1L-245.5 505.6L-263.0 525.8L-263.7 532.1L-269.4 541.6L-276.9 546.5L-286.0 542.5L-297.5 541.4L-299.9 538.7L-303.3 538.9L-307.7 533.2L-313.0 534.8L-316.8 538.2L-215.4 538.2L-215.4 694.1L51.7 694.1Z" fill="#d8cfa8" stroke="#4a6b52" stroke-width="0.8"/><path d="M1044.9 1092.0L1035.3 1091.3L1033.9 1094.2L1023.6 1094.8L1028.0 1091.0L1030.2 1091.3L1031.6 1089.0L1030.1 1089.0L1029.4 1087.2L1030.8 1087.2L1029.6 1080.8L1036.5 1077.3L1033.5 1072.6L1021.8 1078.0L1021.2 1080.3L1017.5 1081.0L1020.2 1087.9L1023.5 1090.8L1022.0 1090.8L1020.0 1096.6L1012.7 1098.5L1013.5 1108.3L1018.0 1111.8L1012.8 1111.8L1012.8 1110.7L1009.2 1111.3L1014.4 1115.6L1017.3 1116.4L1017.4 1118.2L1019.2 1119.3L1022.5 1120.7L1030.6 1120.9L1030.6 1122.7L1032.1 1122.7L1030.8 1131.4L1019.8 1133.3L1019.8 1134.4L1012.5 1136.8L1008.7 1150.8L1010.0 1163.0L1011.4 1163.0L1014.9 1171.1L1015.7 1174.0L1014.6 1175.7L1012.4 1176.3L1007.9 1170.6L1004.2 1170.6L1004.9 1169.5L1003.4 1169.5L1003.4 1168.3L994.6 1168.4L995.1 1174.2L998.1 1180.0L997.9 1191.6L994.2 1190.8L992.1 1191.6L995.4 1195.1L995.9 1199.2L993.7 1199.8L992.3 1204.5L990.8 1204.5L991.6 1208.5L993.4 1209.1L992.8 1215.5L989.9 1217.8L988.8 1220.8L987.4 1220.8L986.0 1224.3L984.5 1223.7L980.9 1230.7L954.5 1236.5L947.1 1234.5L948.3 1237.4L946.5 1242.1L941.4 1242.4L936.2 1241.6L934.7 1238.1L928.0 1235.0L925.8 1235.3L925.8 1234.2L920.6 1231.9L920.6 1230.7L916.2 1230.2L916.2 1229.0L911.0 1227.6L907.3 1228.5L908.5 1232.0L920.6 1233.6L921.4 1236.5L926.3 1240.6L924.5 1241.7L924.9 1247.0L928.2 1247.2L931.2 1250.7L933.4 1250.9L934.3 1256.7L924.0 1258.6L923.7 1261.5L925.5 1262.0L923.3 1263.3L925.6 1271.4L931.6 1273.1L932.3 1275.4L936.0 1275.9L936.0 1277.1L938.2 1277.0L938.6 1275.3L942.6 1272.6L947.0 1274.6L947.8 1277.5L951.8 1275.8L952.9 1272.3L954.3 1272.3L953.2 1268.8L957.9 1262.3L963.7 1261.7L965.3 1264.6L970.4 1263.7L976.9 1256.3L980.6 1256.0L984.6 1257.4L984.4 1262.0L985.8 1262.0L985.8 1263.2L984.4 1263.2L984.1 1269.0L987.8 1271.9L986.8 1278.3L988.3 1278.3L989.1 1281.2L990.5 1280.9L994.9 1277.1L994.1 1271.2L995.5 1271.2L993.6 1267.8L995.7 1258.5L994.5 1249.7L995.9 1249.7L995.5 1246.8L998.1 1247.1L1001.3 1242.7L999.4 1239.8L997.2 1239.3L997.2 1237.5L995.0 1237.0L995.7 1234.1L997.1 1234.0L996.3 1230.6L1000.8 1229.4L1001.4 1227.0L1002.2 1229.3L1005.1 1228.7L1002.9 1225.2L1004.4 1225.2L1004.3 1223.5L1011.8 1229.0L1017.3 1228.6L1015.4 1222.2L1016.8 1222.2L1016.3 1216.4L1013.7 1211.8L1011.5 1211.2L1011.4 1208.9L1016.2 1207.7L1016.5 1204.8L1022.5 1205.6L1023.5 1204.7L1021.6 1199.5L1028.2 1198.6L1031.9 1200.3L1035.6 1205.2L1034.8 1199.9L1033.4 1200.0L1033.4 1198.8L1036.3 1198.2L1035.5 1194.1L1034.0 1194.1L1033.2 1187.8L1031.7 1187.8L1033.1 1184.0L1045.6 1184.2L1052.7 1189.3L1053.1 1191.6L1056.0 1190.1L1060.4 1191.0L1060.4 1192.1L1063.4 1192.7L1066.4 1195.3L1070.8 1195.5L1073.8 1200.1L1077.5 1198.9L1071.4 1185.6L1069.9 1185.6L1069.9 1184.5L1068.4 1185.1L1067.2 1179.3L1072.0 1176.6L1074.9 1178.3L1078.6 1178.0L1080.1 1181.1L1083.1 1180.6L1085.7 1182.0L1087.6 1185.8L1089.0 1186.0L1088.6 1183.2L1091.9 1180.2L1087.2 1166.3L1083.5 1164.6L1080.5 1158.2L1077.6 1158.3L1076.8 1155.9L1073.1 1155.4L1073.1 1156.6L1069.4 1154.8L1067.2 1152.0L1063.5 1151.4L1061.2 1145.0L1058.2 1143.9L1058.2 1141.0L1055.9 1140.5L1054.4 1137.6L1048.5 1135.3L1047.0 1133.0L1037.4 1130.2L1037.0 1127.3L1038.7 1123.5L1043.1 1119.1L1044.6 1119.3L1046.7 1115.6L1048.2 1115.5L1052.1 1105.0L1050.2 1102.7L1045.8 1102.8L1045.0 1098.7L1046.4 1099.0L1048.2 1094.1L1044.9 1092.0Z" fill="#cfe3b8" stroke="#4a6b52" stroke-width="0.8"/><path d="M428.0 966.9L431.9 965.4L433.1 966.3L435.4 977.9L439.9 982.1L448.2 985.8L453.8 985.6L461.6 982.0L471.8 980.1L469.5 972.6L465.1 970.1L464.7 966.6L469.6 962.8L471.5 957.1L465.3 948.2L457.2 945.2L461.1 943.4L464.0 939.9L459.7 936.0L455.8 935.1L452.5 932.2L451.8 928.2L448.3 925.8L440.9 914.6L437.4 904.6L430.6 898.3L424.2 896.7L419.0 886.3L412.6 883.1L405.5 873.9L405.2 869.0L407.0 863.1L404.9 859.5L410.1 850.2L412.7 847.9L417.2 847.3L421.2 843.2L421.5 828.5L418.3 822.6L420.2 814.8L419.4 806.6L416.9 804.5L413.2 803.9L398.9 810.9L396.6 815.6L398.0 824.1L406.5 830.6L405.5 842.8L398.5 847.5L390.1 846.1L389.1 848.2L391.7 852.8L398.9 854.2L400.2 855.9L401.0 858.0L395.8 859.3L395.4 860.6L398.8 861.6L401.8 865.2L400.6 868.1L396.8 869.8L398.4 876.4L392.5 888.8L395.9 906.1L400.2 913.1L407.2 913.9L409.1 917.9L402.4 922.4L403.0 929.6L404.7 931.3L415.5 933.7L409.0 940.6L410.6 945.2L407.9 950.5L416.8 964.8L420.6 967.6L428.0 966.9Z" fill="#cfe3b8" stroke="#4a6b52" stroke-width="0.8"/><path d="M669.5 924.4L677.0 933.4L679.3 941.0L681.6 943.1L687.6 935.6L689.0 931.1L688.4 925.5L685.8 921.2L687.7 914.4L691.1 913.9L693.8 911.7L689.7 906.5L695.3 903.7L700.1 904.1L701.1 905.6L703.7 906.0L705.7 902.5L704.8 897.2L711.2 895.2L713.1 891.3L719.1 887.1L715.4 908.8L716.4 912.8L715.4 917.5L716.7 917.8L717.5 916.3L723.2 916.6L724.0 911.1L726.4 909.8L728.2 912.3L731.9 912.6L729.5 915.3L729.5 916.9L731.2 917.8L734.5 917.0L737.1 913.0L738.3 914.3L741.3 913.3L743.8 915.0L746.3 914.1L744.8 907.9L746.0 904.6L743.2 902.5L749.2 896.1L749.4 888.8L754.5 885.9L756.9 886.5L761.4 884.9L759.6 882.8L760.8 876.6L758.8 872.4L754.5 873.7L750.1 868.5L743.1 867.3L736.6 869.0L728.3 875.3L720.1 873.9L714.7 874.9L709.5 873.8L706.3 874.9L703.7 873.4L703.3 876.2L700.1 875.6L693.7 872.2L688.2 867.3L689.7 865.0L690.2 858.7L692.7 855.1L691.8 852.8L688.1 850.0L685.2 849.6L680.8 844.2L672.6 838.9L665.1 840.2L663.6 842.0L664.3 845.2L671.9 846.2L672.3 847.7L668.3 851.0L670.0 858.4L666.1 862.4L665.1 866.9L666.6 872.4L667.6 870.0L671.5 870.4L674.2 869.1L678.9 873.7L676.0 878.7L670.4 879.2L668.8 877.0L669.4 874.6L667.6 874.4L667.8 880.1L669.7 882.3L666.9 883.2L663.8 881.0L661.0 883.3L665.5 888.0L666.1 893.8L664.7 900.2L659.4 906.6L659.8 914.4L662.8 913.9L665.0 911.3L664.2 904.0L668.6 905.0L670.9 903.8L674.1 904.3L678.5 906.8L678.8 912.1L676.6 913.3L677.5 920.5L674.0 919.9L670.7 921.2L669.5 924.4Z" fill="#cfe3b8" stroke="#4a6b52" stroke-width="0.8"/><path d="M1009.4 753.7L1013.5 754.1L1015.7 756.1L1005.9 767.1L1005.8 769.1L1008.3 772.1L1013.0 774.0L1015.3 773.4L1017.7 769.2L1022.0 769.9L1023.4 766.2L1027.6 766.7L1031.4 763.6L1033.3 758.0L1036.4 757.3L1038.5 765.5L1035.5 768.7L1035.5 771.1L1031.5 778.1L1032.8 777.5L1037.5 780.8L1040.0 777.7L1041.1 772.0L1042.8 770.5L1044.7 771.7L1044.2 769.1L1045.6 768.3L1053.8 769.4L1055.1 771.9L1058.6 771.2L1059.4 769.3L1057.1 763.8L1057.7 761.5L1060.1 760.3L1057.7 754.2L1058.7 752.4L1057.7 747.8L1062.2 744.6L1058.6 738.9L1052.1 740.9L1047.2 745.0L1045.7 744.4L1044.0 741.3L1048.4 739.8L1046.5 739.3L1043.0 732.9L1042.7 729.1L1044.3 727.9L1043.2 726.3L1047.9 725.3L1049.5 721.8L1056.2 718.9L1058.1 714.9L1057.6 710.0L1063.6 704.0L1080.6 694.4L1081.0 692.4L1077.8 689.7L1085.2 679.4L1085.9 667.6L1084.1 664.6L1085.8 659.8L1084.4 658.4L1085.3 657.2L1082.0 659.3L1081.1 658.0L1079.1 659.2L1080.2 662.2L1076.8 666.6L1078.3 671.2L1077.0 676.3L1074.5 677.8L1072.4 676.1L1070.0 676.8L1068.8 679.5L1066.0 681.2L1063.9 689.1L1066.1 691.4L1064.6 695.1L1067.1 699.1L1062.0 702.1L1061.3 703.7L1054.7 704.1L1049.6 701.7L1052.1 697.0L1049.6 690.7L1048.0 691.9L1042.3 691.4L1033.5 696.9L1018.1 692.6L1018.1 694.9L1011.8 700.7L1010.6 703.6L1011.6 705.5L1015.1 705.5L1015.8 707.8L1014.2 721.8L1010.3 727.4L1002.1 731.4L997.8 736.4L1000.1 740.5L996.6 749.5L997.0 753.1L995.1 754.5L994.7 756.9L1000.1 758.3L1005.3 754.4L1009.4 753.7Z" fill="#cfe3b8" stroke="#4a6b52" stroke-width="0.8"/><path d="M894.6 1118.2L898.6 1124.1L899.2 1130.1L900.8 1131.4L903.8 1129.6L916.4 1127.1L916.5 1128.0L935.7 1122.3L939.1 1116.5L945.3 1114.2L946.6 1110.0L955.4 1107.4L962.3 1107.4L970.5 1114.6L976.4 1111.0L984.8 1112.7L983.0 1110.5L983.3 1106.6L977.5 1106.6L970.7 1103.9L956.8 1095.2L955.7 1088.9L957.1 1081.1L953.6 1074.2L949.0 1073.5L942.9 1074.7L938.7 1068.7L934.3 1073.4L928.1 1075.4L926.5 1079.7L920.7 1079.6L917.0 1077.8L913.6 1073.2L912.7 1063.3L908.6 1059.1L903.6 1059.7L900.8 1057.8L898.5 1066.6L899.4 1069.9L894.7 1073.4L896.6 1076.9L895.8 1079.5L894.0 1080.3L891.7 1078.6L888.5 1078.4L883.4 1081.0L878.1 1081.9L875.7 1083.4L874.3 1087.3L876.4 1090.5L880.3 1088.3L884.9 1089.1L891.8 1094.7L892.5 1097.3L888.1 1102.5L887.1 1110.1L888.8 1112.3L892.7 1113.1L894.6 1118.2Z" fill="#cfe3b8" stroke="#4a6b52" stroke-width="0.8"/><path d="M223.9 1102.0L234.1 1100.5L237.6 1101.4L240.7 1104.4L248.7 1107.8L252.1 1114.2L257.1 1111.2L257.7 1107.0L263.1 1104.9L265.1 1106.3L274.0 1098.7L280.8 1099.5L282.5 1101.4L294.6 1106.3L295.7 1108.7L-215.4 1108.7L-215.4 1102.0L223.9 1102.0Z" fill="#d8cfa8" stroke="#4a6b52" stroke-width="0.8"/><path d="M365.2 679.9L354.1 664.6L347.2 672.3L348.1 675.2L346.0 684.8L348.8 688.9L354.8 691.7L350.8 695.4L350.4 699.9L348.8 701.2L345.0 702.3L340.3 700.7L338.3 702.2L342.2 712.8L347.8 719.6L346.9 724.3L340.8 731.4L341.2 734.1L345.9 731.9L351.6 732.8L352.9 728.6L356.8 725.8L361.9 727.8L367.6 723.9L371.5 722.7L375.1 723.3L377.3 719.4L380.8 716.9L383.7 716.8L383.6 712.2L390.0 702.4L393.9 702.1L394.6 700.9L393.4 697.1L391.5 697.7L389.4 695.1L390.9 690.1L394.5 687.7L399.0 687.7L404.5 680.8L402.5 676.3L402.3 670.6L398.5 669.4L375.5 682.1L365.2 679.9Z" fill="#cfe3b8" stroke="#4a6b52" stroke-width="0.8"/><path d="M644.1 951.8L646.8 947.7L645.7 946.9L646.0 943.3L650.0 939.3L645.3 934.0L644.2 928.7L640.3 927.1L638.4 921.6L636.0 918.9L636.1 906.8L640.9 897.9L641.0 894.1L639.8 888.9L633.8 881.0L636.2 869.7L634.3 864.7L635.2 858.1L632.8 856.4L623.0 856.4L618.0 854.5L615.7 851.5L612.2 851.2L608.1 855.2L604.3 855.5L612.5 862.0L608.9 873.6L613.6 874.6L615.9 878.6L614.3 883.7L609.0 887.4L608.6 891.1L611.8 893.7L615.7 900.7L614.2 906.9L612.4 908.1L616.4 917.5L614.9 924.3L631.4 941.7L636.0 941.1L637.8 942.2L642.0 946.4L644.1 951.8Z" fill="#cfe3b8" stroke="#4a6b52" stroke-width="0.8"/><path d="M527.3 225.1L528.0 219.5L533.3 205.1L530.3 199.9L528.0 199.1L527.5 196.0L526.4 196.7L525.7 195.0L521.6 193.3L521.2 190.6L518.9 190.6L519.0 187.1L518.1 187.8L517.4 186.6L516.0 187.8L513.9 185.8L512.4 187.9L509.7 186.8L502.9 177.4L498.5 174.2L497.6 174.9L496.1 173.6L493.1 175.2L488.0 174.5L486.3 172.7L487.2 178.1L491.8 185.5L489.4 191.6L489.6 199.7L484.8 202.3L481.0 200.4L482.1 212.6L481.2 223.1L486.0 227.6L491.6 224.3L494.5 226.2L495.9 222.5L499.4 220.6L507.9 220.2L517.2 226.6L518.8 230.3L522.6 233.0L525.0 232.2L527.3 225.1Z" fill="#cfe3b8" stroke="#4a6b52" stroke-width="0.8"/><path d="M909.6 430.2L908.0 430.1L905.6 433.9L909.4 445.6L909.4 449.3L907.9 450.5L905.1 451.2L900.2 447.8L896.3 449.4L893.9 447.4L893.9 445.2L889.2 441.5L885.5 441.3L879.6 444.6L869.4 442.4L865.9 444.7L866.4 449.0L863.8 452.5L863.3 456.3L865.8 460.2L872.4 457.1L886.0 459.9L887.8 466.8L891.6 468.8L895.3 474.0L899.6 475.3L901.0 481.0L907.0 483.9L911.3 493.8L911.9 501.7L912.8 503.7L915.9 504.2L914.9 501.6L915.5 500.2L917.6 500.8L917.6 493.3L924.9 492.0L920.9 486.6L917.9 487.4L911.3 480.6L910.0 480.9L910.4 475.0L906.5 471.6L905.4 464.3L908.9 461.2L910.8 462.7L913.4 461.0L912.7 452.9L916.5 449.8L922.4 451.4L921.5 448.1L924.6 446.2L925.4 442.5L928.6 442.7L920.6 434.1L918.2 432.9L916.3 433.6L912.5 430.5L909.6 430.2Z" fill="#cfe3b8" stroke="#4a6b52" stroke-width="0.8"/><path d="M588.2 662.1L582.4 660.4L573.5 662.7L566.4 670.7L562.8 672.6L563.2 674.3L569.5 677.9L568.5 677.7L571.4 684.2L566.1 692.2L563.1 694.1L557.9 694.8L554.2 697.7L554.8 701.0L558.8 704.3L561.0 711.5L566.4 709.1L570.8 712.7L573.3 712.1L574.6 710.6L573.4 707.8L576.2 707.7L580.4 702.8L583.5 706.3L586.5 706.1L589.2 699.9L591.3 699.9L593.3 703.8L594.5 703.6L593.3 696.5L598.5 689.4L597.8 676.9L601.6 670.2L596.1 662.1L592.8 661.2L588.2 662.1Z" fill="#cfe3b8" stroke="#4a6b52" stroke-width="0.8"/><path d="M344.9 636.2L347.3 637.1L349.5 636.0L350.4 626.3L337.6 598.2L328.5 593.3L324.2 588.9L312.3 583.9L298.4 573.6L294.8 573.3L294.0 578.0L295.9 583.3L301.1 588.1L306.7 597.7L317.7 608.5L321.4 618.5L329.2 628.9L336.7 635.6L338.9 636.0L341.3 634.6L344.9 636.2Z" fill="#cfe3b8" stroke="#4a6b52" stroke-width="0.8"/><path d="M1115.0 1305.2L1114.8 1304.4L1114.5 1305.4L1112.1 1305.4L1108.0 1308.2L1110.4 1311.0L1109.1 1313.3L1106.2 1313.9L1106.4 1317.9L1101.4 1319.7L1096.4 1324.9L1091.6 1324.0L1090.5 1319.8L1084.6 1316.3L1082.4 1323.4L1075.5 1324.7L1070.9 1322.3L1069.4 1322.6L1067.5 1325.4L1069.0 1325.5L1068.2 1327.8L1066.0 1329.4L1073.4 1332.0L1078.1 1335.5L1080.5 1335.0L1081.6 1333.3L1086.3 1334.2L1090.4 1331.7L1095.0 1333.4L1098.3 1339.3L1100.6 1338.3L1101.2 1334.5L1103.7 1331.9L1105.8 1331.7L1107.5 1332.4L1108.8 1337.4L1112.7 1341.4L1114.1 1340.4L1117.0 1342.0L1121.1 1340.3L1122.4 1338.8L1121.1 1334.5L1122.3 1334.1L1120.8 1331.6L1126.3 1330.0L1126.3 1324.2L1123.8 1323.5L1123.4 1321.7L1126.2 1316.9L1130.5 1316.5L1138.0 1322.4L1138.5 1323.6L1136.9 1325.3L1138.4 1326.2L1140.8 1322.2L1144.2 1322.6L1146.1 1321.4L1138.2 1314.7L1136.2 1314.9L1135.2 1313.6L1130.9 1314.6L1124.7 1307.1L1122.4 1307.3L1119.2 1305.0L1118.5 1305.9L1115.0 1305.2Z" fill="#cfe3b8" stroke="#4a6b52" stroke-width="0.8"/><path d="M882.6 977.6L879.2 977.9L878.4 980.2L871.1 986.8L870.8 990.2L873.8 996.2L881.0 999.1L896.9 1001.9L900.2 1001.9L904.6 999.7L907.9 992.4L906.0 989.3L907.3 985.8L902.6 986.8L896.7 980.2L884.8 979.4L882.2 978.5L882.6 977.6Z" fill="#cfe3b8" stroke="#4a6b52" stroke-width="0.8"/><path d="M1169.1 1180.0L1169.4 1175.3L1164.4 1166.1L1165.9 1166.1L1162.2 1163.8L1161.7 1153.9L1168.9 1146.8L1169.2 1143.9L1167.8 1144.0L1167.0 1142.2L1161.9 1144.0L1161.2 1146.9L1159.0 1147.2L1147.2 1145.3L1145.6 1138.4L1139.0 1137.9L1138.3 1139.6L1135.3 1140.2L1135.8 1143.7L1133.6 1147.8L1135.9 1153.0L1141.5 1155.8L1141.6 1160.5L1143.8 1159.9L1146.8 1163.6L1151.9 1163.0L1156.4 1166.2L1157.9 1170.2L1162.7 1172.5L1162.4 1173.7L1165.0 1174.8L1167.6 1179.7L1169.1 1180.0Z" fill="#cfe3b8" stroke="#4a6b52" stroke-width="0.8"/><path d="M1032.0 1070.3L1034.5 1064.5L1038.5 1061.9L1041.4 1061.8L1044.3 1056.3L1045.8 1056.3L1046.1 1053.4L1049.4 1052.5L1050.1 1053.9L1053.8 1053.9L1053.8 1055.0L1055.3 1055.0L1056.0 1052.7L1054.5 1052.7L1056.6 1046.3L1058.1 1046.3L1057.3 1042.8L1058.8 1042.8L1059.3 1032.3L1057.9 1032.9L1057.9 1034.6L1054.2 1034.1L1054.3 1035.3L1049.8 1033.9L1046.2 1035.9L1046.2 1037.7L1044.0 1038.3L1043.3 1040.6L1041.8 1039.7L1038.9 1040.7L1039.6 1041.8L1038.2 1041.8L1035.7 1045.9L1036.1 1048.8L1034.6 1048.8L1033.9 1052.3L1032.5 1052.3L1032.5 1054.7L1029.6 1055.3L1028.9 1058.8L1027.4 1058.8L1030.0 1061.7L1030.2 1068.6L1032.0 1070.3Z" fill="#cfe3b8" stroke="#4a6b52" stroke-width="0.8"/><path d="M1097.5 692.7L1095.3 691.9L1091.0 692.9L1084.9 698.0L1085.8 701.9L1088.9 705.4L1087.5 715.5L1089.7 717.6L1090.4 715.9L1097.9 713.9L1103.8 716.8L1101.7 737.5L1106.0 743.5L1107.6 740.5L1105.6 733.6L1106.2 731.3L1104.6 733.5L1106.9 716.3L1108.6 713.1L1101.4 707.6L1100.1 702.5L1100.9 699.5L1099.5 699.1L1100.1 696.6L1098.0 695.7L1097.5 692.7Z" fill="#cfe3b8" stroke="#4a6b52" stroke-width="0.8"/><path d="M522.6 960.3L527.2 960.4L528.8 955.8L526.9 953.7L520.7 951.0L518.2 939.0L513.6 934.1L509.3 925.8L503.9 923.1L491.8 921.7L490.7 926.7L498.1 927.7L504.8 932.3L504.2 939.9L508.6 942.1L513.4 948.0L512.6 954.3L519.3 956.2L522.6 960.3Z" fill="#cfe3b8" stroke="#4a6b52" stroke-width="0.8"/><path d="M1031.7 1280.8L1032.4 1276.1L1033.9 1276.1L1033.8 1272.6L1039.7 1272.3L1040.5 1274.9L1043.4 1276.0L1044.2 1280.1L1046.4 1280.0L1046.4 1278.9L1049.4 1279.7L1050.8 1277.1L1053.0 1276.5L1053.0 1278.2L1055.2 1277.6L1053.0 1274.2L1054.4 1274.1L1051.4 1270.1L1049.2 1272.5L1044.8 1272.5L1044.0 1267.3L1041.8 1266.7L1040.4 1269.1L1034.4 1266.2L1035.2 1265.0L1032.9 1264.5L1033.6 1261.0L1029.2 1259.9L1029.1 1255.2L1027.7 1255.2L1027.6 1254.1L1022.5 1254.7L1021.8 1257.6L1020.3 1257.6L1022.9 1259.9L1024.2 1266.3L1026.0 1266.9L1026.4 1269.2L1027.9 1269.2L1027.3 1280.2L1031.7 1280.8Z" fill="#cfe3b8" stroke="#4a6b52" stroke-width="0.8"/><path d="M993.1 775.2L990.6 772.5L991.4 769.5L988.1 769.5L985.9 772.0L985.8 777.3L983.7 779.1L987.1 780.2L985.6 783.7L994.3 785.5L992.5 789.7L993.4 791.5L996.8 787.1L1003.0 787.6L1004.0 784.4L1006.6 784.1L1006.5 781.6L1007.8 781.2L1005.7 773.7L1004.1 772.4L998.5 774.9L993.1 775.2Z" fill="#cfe3b8" stroke="#4a6b52" stroke-width="0.8"/><path d="M1276.3 637.6L1275.8 636.4L1275.8 637.7L1273.6 636.9L1270.5 646.6L1268.4 646.6L1265.3 651.7L1268.4 653.0L1268.8 657.1L1271.2 659.2L1278.9 659.6L1282.7 656.8L1285.9 660.5L1288.7 652.8L1282.3 653.5L1281.0 650.2L1276.9 649.4L1276.7 647.9L1278.9 646.3L1277.7 646.2L1278.5 642.3L1276.3 637.6Z" fill="#cfe3b8" stroke="#4a6b52" stroke-width="0.8"/><path d="M603.2 793.4L601.9 795.5L602.9 799.3L611.4 809.7L607.6 820.5L610.3 825.0L613.2 825.8L616.8 823.7L615.3 817.2L617.2 811.3L615.0 807.4L615.6 800.6L607.1 798.0L605.8 793.6L603.2 793.4Z" fill="#cfe3b8" stroke="#4a6b52" stroke-width="0.8"/><path d="M882.6 1041.8L881.5 1041.6L879.3 1048.1L884.4 1053.2L895.5 1051.5L899.1 1053.4L904.0 1053.8L908.9 1050.8L910.1 1047.5L908.7 1046.0L906.9 1046.6L904.2 1045.0L892.9 1047.0L888.0 1045.7L885.2 1042.3L882.6 1041.8Z" fill="#cfe3b8" stroke="#4a6b52" stroke-width="0.8"/><path d="M1144.4 704.2L1139.6 699.2L1139.9 690.3L1131.9 694.0L1129.1 698.3L1129.7 702.0L1127.8 705.1L1129.6 706.6L1130.1 705.6L1133.3 706.7L1137.8 705.4L1139.7 708.0L1141.4 706.8L1143.7 708.1L1144.4 704.2Z" fill="#cfe3b8" stroke="#4a6b52" stroke-width="0.8"/><path d="M783.8 882.7L781.8 883.8L781.7 887.0L779.7 887.0L778.6 888.9L779.3 891.6L777.6 898.2L782.8 896.9L784.6 894.7L788.6 895.9L796.7 891.5L796.3 887.4L789.9 887.8L783.8 882.7Z" fill="#cfe3b8" stroke="#4a6b52" stroke-width="0.8"/><path d="M1222.5 625.4L1219.3 626.0L1217.1 630.0L1214.1 629.8L1213.0 632.3L1218.1 633.8L1224.6 642.4L1228.9 638.4L1230.0 633.8L1228.6 630.4L1230.1 628.4L1222.5 625.4Z" fill="#cfe3b8" stroke="#4a6b52" stroke-width="0.8"/><path d="M909.7 1144.8L909.7 1143.1L906.4 1145.0L903.5 1144.0L900.7 1145.7L897.1 1151.0L900.4 1156.7L895.2 1160.2L895.5 1161.9L903.9 1158.9L906.6 1155.4L905.0 1153.1L906.0 1151.2L911.1 1148.0L909.7 1144.8Z" fill="#cfe3b8" stroke="#4a6b52" stroke-width="0.8"/><path d="M1092.8 1143.0L1098.6 1140.3L1101.5 1136.5L1105.9 1138.2L1107.3 1133.0L1101.4 1131.3L1101.4 1130.1L1095.5 1131.3L1094.8 1133.7L1089.7 1135.4L1089.7 1137.7L1088.3 1137.8L1092.8 1143.0Z" fill="#cfe3b8" stroke="#4a6b52" stroke-width="0.8"/><path d="M44.6 317.3L43.1 317.3L43.2 322.8L41.8 323.4L43.5 327.2L46.6 325.2L48.1 325.8L55.8 323.0L64.1 325.7L67.3 323.3L62.9 320.7L56.0 322.0L51.8 317.9L47.7 318.2L46.1 317.1L45.2 318.3L44.6 317.3Z" fill="#cfe3b8" stroke="#4a6b52" stroke-width="0.8"/><path d="M274.3 767.3L276.3 767.6L277.7 765.8L275.5 760.6L278.1 756.8L275.8 752.6L269.2 748.9L266.5 752.3L269.4 754.8L270.0 761.4L274.3 767.3Z" fill="#cfe3b8" stroke="#4a6b52" stroke-width="0.8"/><path d="M305.9 678.0L309.0 678.8L307.3 674.1L309.5 669.0L308.1 663.4L312.6 659.9L312.5 658.8L306.6 656.7L305.7 660.4L303.2 661.9L303.5 673.0L305.9 678.0Z" fill="#cfe3b8" stroke="#4a6b52" stroke-width="0.8"/><path d="M437.0 1405.3L438.7 1406.8L441.3 1405.3L448.7 1405.1L439.4 1400.3L438.3 1397.4L435.9 1396.5L429.6 1400.5L437.0 1405.3Z" fill="#cfe3b8" stroke="#4a6b52" stroke-width="0.8"/><path d="M1114.3 1204.7L1114.7 1201.5L1108.2 1186.4L1106.0 1188.2L1107.2 1198.0L1106.2 1199.8L1114.3 1204.7Z" fill="#cfe3b8" stroke="#4a6b52" stroke-width="0.8"/><path d="M1066.1 777.7L1063.2 774.6L1061.3 774.9L1058.7 782.8L1059.1 784.6L1063.3 783.9L1064.7 786.8L1068.5 783.6L1068.2 780.7L1070.1 780.9L1068.4 777.5L1066.1 777.7Z" fill="#cfe3b8" stroke="#4a6b52" stroke-width="0.8"/><path d="M959.6 787.0L961.2 783.9L956.4 780.0L948.1 781.0L947.1 779.9L946.2 782.3L943.9 783.7L944.9 785.1L946.9 783.5L948.3 785.5L953.6 784.3L957.5 787.8L959.6 787.0Z" fill="#cfe3b8" stroke="#4a6b52" stroke-width="0.8"/><path d="M1007.4 441.5L1005.3 441.9L1004.5 443.6L999.5 443.5L1001.7 446.2L1005.4 447.4L1006.5 452.3L1011.1 454.9L1011.4 453.0L1008.9 450.4L1010.4 450.3L1009.4 447.9L1011.0 447.8L1011.0 445.8L1009.5 445.6L1009.9 443.5L1007.4 441.5Z" fill="#cfe3b8" stroke="#4a6b52" stroke-width="0.8"/><path d="M1119.2 708.4L1109.9 712.2L1112.7 713.5L1117.4 723.7L1119.1 724.1L1118.0 717.9L1120.2 709.3L1119.2 708.4Z" fill="#cfe3b8" stroke="#4a6b52" stroke-width="0.8"/><path d="M836.6 477.6L832.7 480.8L827.4 481.0L822.6 483.1L827.1 488.2L828.5 488.3L829.9 485.0L832.8 485.5L834.0 481.0L837.6 480.6L836.6 477.6Z" fill="#cfe3b8" stroke="#4a6b52" stroke-width="0.8"/><path d="M29.0 326.7L22.7 331.5L20.9 335.9L24.9 344.6L24.1 339.4L28.4 332.7L29.0 326.7Z" fill="#cfe3b8" stroke="#4a6b52" stroke-width="0.8"/><path d="M353.3 659.2L355.6 658.4L352.8 646.8L351.1 645.1L348.1 645.1L348.8 650.7L353.3 659.2Z" fill="#cfe3b8" stroke="#4a6b52" stroke-width="0.8"/><path d="M1042.1 1301.8L1046.6 1296.0L1045.6 1292.1L1046.6 1288.9L1045.0 1285.4L1045.1 1287.4L1040.8 1293.6L1041.6 1297.8L1040.4 1300.8L1042.1 1301.8Z" fill="#cfe3b8" stroke="#4a6b52" stroke-width="0.8"/><path d="M402.1 724.7L398.5 724.9L401.4 732.3L406.6 734.8L406.5 728.2L402.1 724.7Z" fill="#cfe3b8" stroke="#4a6b52" stroke-width="0.8"/><path d="M256.7 769.8L262.2 766.0L263.2 763.0L261.6 760.9L253.2 764.4L256.7 769.8Z" fill="#cfe3b8" stroke="#4a6b52" stroke-width="0.8"/><path d="M326.2 1230.9L328.2 1229.2L327.4 1226.7L317.0 1225.4L316.2 1227.1L317.8 1230.0L326.2 1230.9Z" fill="#cfe3b8" stroke="#4a6b52" stroke-width="0.8"/><path d="M828.0 1044.5L820.4 1049.1L826.8 1049.3L828.3 1053.4L830.5 1054.5L832.7 1053.9L831.5 1049.8L828.0 1047.3L829.0 1044.2L828.0 1044.5Z" fill="#cfe3b8" stroke="#4a6b52" stroke-width="0.8"/><path d="M806.2 892.6L802.2 893.1L800.2 895.0L797.2 902.4L798.4 905.1L801.7 904.6L802.6 896.8L801.3 895.8L803.6 893.9L806.4 894.2L806.2 892.6Z" fill="#cfe3b8" stroke="#4a6b52" stroke-width="0.8"/><path d="M392.8 1045.9L390.7 1043.4L384.7 1044.4L380.0 1049.0L384.2 1046.3L397.7 1049.3L396.3 1044.5L395.4 1046.2L392.8 1045.9Z" fill="#cfe3b8" stroke="#4a6b52" stroke-width="0.8"/><path d="M409.7 699.1L411.1 698.9L411.2 693.4L414.1 688.9L408.9 687.1L407.1 690.0L409.7 699.1Z" fill="#cfe3b8" stroke="#4a6b52" stroke-width="0.8"/><path d="M1084.4 1080.3L1087.3 1079.7L1084.5 1069.4L1084.9 1065.2L1083.4 1065.8L1083.5 1072.2L1081.3 1072.8L1082.8 1076.2L1081.4 1076.3L1081.4 1077.4L1083.6 1077.4L1084.4 1080.3Z" fill="#cfe3b8" stroke="#4a6b52" stroke-width="0.8"/><path d="M917.2 614.2L916.0 614.7L916.3 618.3L914.8 620.9L917.7 619.8L918.4 621.4L920.7 617.2L927.7 615.5L928.6 614.1L922.1 615.3L921.9 614.2L920.1 615.2L917.2 614.2Z" fill="#cfe3b8" stroke="#4a6b52" stroke-width="0.8"/><path d="M468.5 270.5L465.6 265.9L462.9 268.0L462.7 270.8L471.8 273.3L468.5 270.5Z" fill="#cfe3b8" stroke="#4a6b52" stroke-width="0.8"/><path d="M1191.2 600.8L1189.4 601.6L1189.3 604.5L1191.8 606.3L1195.7 606.1L1191.2 600.8Z" fill="#cfe3b8" stroke="#4a6b52" stroke-width="0.8"/><path d="M1150.3 1323.7L1147.4 1325.9L1148.2 1331.9L1151.1 1330.0L1150.3 1323.7Z" fill="#cfe3b8" stroke="#4a6b52" stroke-width="0.8"/><path d="M385.4 722.6L388.5 722.4L390.4 720.4L387.5 717.6L384.9 719.0L385.4 722.6Z" fill="#cfe3b8" stroke="#4a6b52" stroke-width="0.8"/><path d="M1241.5 621.1L1238.5 621.9L1238.5 625.1L1240.0 624.7L1244.5 627.5L1241.5 621.1Z" fill="#cfe3b8" stroke="#4a6b52" stroke-width="0.8"/><path d="M930.4 802.5L935.3 795.4L934.0 794.0L929.0 801.2L930.4 802.5Z" fill="#cfe3b8" stroke="#4a6b52" stroke-width="0.8"/><path d="M243.1 759.8L244.4 761.1L246.2 760.5L247.2 755.5L244.3 755.4L243.1 759.8Z" fill="#cfe3b8" stroke="#4a6b52" stroke-width="0.8"/><path d="M699.5 836.2L697.8 838.9L704.4 838.4L702.5 834.5L699.5 836.2Z" fill="#cfe3b8" stroke="#4a6b52" stroke-width="0.8"/><path d="M1049.0 1233.5L1048.2 1232.8L1047.0 1234.0L1048.2 1237.0L1050.0 1235.5L1052.8 1236.2L1053.3 1234.9L1051.8 1233.3L1049.0 1233.5Z" fill="#cfe3b8" stroke="#4a6b52" stroke-width="0.8"/><path d="M518.2 282.5L515.9 274.6L514.5 279.1L515.4 281.2L518.2 282.5Z" fill="#cfe3b8" stroke="#4a6b52" stroke-width="0.8"/><path d="M1191.3 614.6L1190.4 618.1L1188.4 618.4L1189.9 620.7L1193.0 619.7L1192.0 618.3L1192.9 615.9L1191.3 614.6Z" fill="#cfe3b8" stroke="#4a6b52" stroke-width="0.8"/><path d="M466.8 222.6L466.9 221.7L464.9 225.3L467.8 227.1L469.8 224.6L466.8 222.6Z" fill="#cfe3b8" stroke="#4a6b52" stroke-width="0.8"/><path d="M709.5 928.5L708.2 927.2L707.6 929.5L709.4 933.7L711.0 932.0L709.5 928.5Z" fill="#cfe3b8" stroke="#4a6b52" stroke-width="0.8"/><path d="M403.8 1052.8L402.2 1051.6L398.9 1052.9L405.5 1054.8L406.0 1052.9L403.8 1052.8Z" fill="#cfe3b8" stroke="#4a6b52" stroke-width="0.8"/><path d="M257.8 738.2L254.7 739.9L257.7 742.0L259.8 739.8L257.8 738.2Z" fill="#cfe3b8" stroke="#4a6b52" stroke-width="0.8"/><path d="M294.2 1198.5L294.1 1194.7L292.2 1194.9L290.5 1197.1L294.2 1198.5Z" fill="#cfe3b8" stroke="#4a6b52" stroke-width="0.8"/><path d="M884.9 790.3L881.7 789.5L880.8 790.4L883.4 792.7L885.6 791.6L884.9 790.3Z" fill="#cfe3b8" stroke="#4a6b52" stroke-width="0.8"/><path d="M940.5 786.2L943.3 784.6L941.0 783.2L939.5 784.9L940.5 786.2Z" fill="#cfe3b8" stroke="#4a6b52" stroke-width="0.8"/><path d="M992.1 736.6L994.1 735.7L993.8 734.0L990.5 735.7L992.1 736.6Z" fill="#cfe3b8" stroke="#4a6b52" stroke-width="0.8"/><path d="M853.4 1037.0L851.2 1038.7L851.6 1040.6L853.8 1038.8L853.4 1037.0Z" fill="#cfe3b8" stroke="#4a6b52" stroke-width="0.8"/><path d="M647.1 901.2L649.5 900.0L647.2 897.3L647.1 901.2Z" fill="#cfe3b8" stroke="#4a6b52" stroke-width="0.8"/><path d="M274.2 738.1L272.4 740.1L273.1 741.4L275.2 739.8L274.2 738.1Z" fill="#cfe3b8" stroke="#4a6b52" stroke-width="0.8"/><path d="M641.5 845.6L642.9 846.4L644.9 844.7L642.8 844.0L641.5 845.6Z" fill="#cfe3b8" stroke="#4a6b52" stroke-width="0.8"/><path d="M153.7 1175.5L155.1 1175.1L154.3 1173.9L151.3 1172.0L153.7 1175.5Z" fill="#cfe3b8" stroke="#4a6b52" stroke-width="0.8"/><path d="M431.8 849.7L433.8 848.6L431.3 847.0L431.8 849.7Z" fill="#cfe3b8" stroke="#4a6b52" stroke-width="0.8"/><path d="M296.2 774.3L297.7 773.5L297.0 772.0L295.5 772.8L296.2 774.3Z" fill="#cfe3b8" stroke="#4a6b52" stroke-width="0.8"/><path d="M1120.3 536.3L1115.8 536.9L1120.0 537.5L1120.3 536.3Z" fill="#cfe3b8" stroke="#4a6b52" stroke-width="0.8"/><path d="M554.4 675.3L556.5 674.9L555.1 672.9L554.4 675.3Z" fill="#cfe3b8" stroke="#4a6b52" stroke-width="0.8"/><path d="M637.7 866.8L639.9 867.0L638.7 865.6L637.4 865.6L637.7 866.8Z" fill="#cfe3b8" stroke="#4a6b52" stroke-width="0.8"/><path d="M460.9 293.3L460.1 290.1L459.8 293.1L460.9 293.3Z" fill="#cfe3b8" stroke="#4a6b52" stroke-width="0.8"/><path d="M644.2 896.8L645.8 896.4L644.1 894.8L644.2 896.8Z" fill="#cfe3b8" stroke="#4a6b52" stroke-width="0.8"/><path d="M680.1 632.0L680.2 633.4L682.2 633.2L680.1 632.0Z" fill="#cfe3b8" stroke="#4a6b52" stroke-width="0.8"/><path d="M956.0 1187.7L954.7 1185.5L954.8 1187.6L956.0 1187.7Z" fill="#cfe3b8" stroke="#4a6b52" stroke-width="0.8"/><path d="M591.9 793.0L590.9 791.7L591.3 794.4L591.9 793.0Z" fill="#cfe3b8" stroke="#4a6b52" stroke-width="0.8"/><path d="M994.3 792.1L994.8 793.3L995.8 792.0L994.3 792.1Z" fill="#cfe3b8" stroke="#4a6b52" stroke-width="0.8"/><path d="M355.8 665.0L357.5 669.1L361.6 672.2L366.5 679.5L374.9 681.4L390.9 671.8L377.2 675.5L366.0 674.0L355.8 665.0Z" fill="#7fd4c9" stroke="#2a8a7f" stroke-width="0.8"/><path d="M883.9 1166.0L885.1 1165.8L884.5 1166.7L883.9 1166.0Z" fill="#7fd4c9" stroke="#2a8a7f" stroke-width="0.8"/><path d="M291.9 1239.8L291.9 1238.7L295.5 1240.1L292.7 1241.4L291.9 1239.8Z" fill="#7fd4c9" stroke="#2a8a7f" stroke-width="0.8"/><path d="M308.3 1156.8L310.4 1156.1L310.9 1158.3L307.7 1158.7L308.3 1156.8Z" fill="#7fd4c9" stroke="#2a8a7f" stroke-width="0.8"/></svg>